<?xml version="1.0" standalone="no"?>
<!DOCTYPE svg PUBLIC "-//W3C//DTD SVG 20010904//EN"
 "http://www.w3.org/TR/2001/REC-SVG-20010904/DTD/svg10.dtd">
<svg version="1.0" xmlns="http://www.w3.org/2000/svg"
 width="512.000000pt" height="512.000000pt" viewBox="0 0 512.000000 512.000000"
 preserveAspectRatio="xMidYMid meet">

<g transform="translate(0.000000,512.000000) scale(0.100000,-0.100000)"
fill="#000000" stroke="none">
<path d="M2060 5114 c-14 -2 -56 -9 -95 -15 -89 -14 -253 -68 -336 -109 -171
-86 -381 -263 -499 -421 -69 -93 -148 -246 -184 -354 -59 -183 -59 -175 -63
-772 l-4 -553 -143 0 c-136 0 -144 -1 -164 -23 l-22 -23 0 -1320 c0 -1299 0
-1320 20 -1352 11 -18 34 -41 52 -52 33 -20 54 -20 1449 -20 l1416 0 45 -25
c58 -32 173 -75 202 -75 13 0 63 16 111 36 273 115 491 352 599 652 80 225
107 402 113 757 7 357 22 330 -179 330 -135 1 -149 3 -237 33 -111 39 -194 83
-276 149 l-60 49 -3 419 c-3 512 15 465 -173 465 l-128 0 -4 553 c-4 596 -5
603 -63 781 -53 164 -136 309 -251 436 -207 230 -435 366 -723 431 -81 19
-340 34 -400 23z m368 -158 c242 -53 422 -152 597 -331 183 -186 287 -398 325
-660 5 -39 10 -294 10 -572 l0 -503 -140 0 -140 0 0 483 c0 431 -2 492 -19
572 -50 241 -182 441 -381 574 -527 353 -1231 56 -1361 -574 -17 -80 -19 -141
-19 -572 l0 -483 -141 0 -140 0 4 548 c3 524 4 551 25 632 43 165 110 310 202
435 181 245 466 416 776 465 83 13 315 5 402 -14z m-90 -442 c225 -46 417
-194 517 -397 81 -165 79 -148 83 -719 l3 -508 -750 0 -751 0 0 475 c0 395 3
489 16 553 85 412 480 679 882 596z m1322 -2138 l0 -375 -42 -34 c-95 -74
-225 -143 -333 -173 -43 -12 -102 -18 -204 -18 -194 -2 -181 18 -181 -275 0
-264 16 -423 60 -600 65 -256 153 -440 284 -595 l57 -66 -1306 0 -1305 0 0
1255 0 1255 1485 0 1485 0 0 -374z m100 -517 c56 -45 167 -114 235 -145 105
-48 207 -74 323 -81 l102 -6 0 -171 c0 -448 -97 -798 -286 -1034 -91 -114
-227 -216 -351 -262 l-54 -20 -67 28 c-295 125 -498 417 -581 835 -32 160 -41
258 -41 448 l0 176 103 6 c181 10 374 82 512 190 39 31 72 56 75 56 3 0 16 -9
30 -20z"/>
<path d="M2087 2150 c-91 -23 -178 -85 -230 -163 -99 -149 -84 -335 37 -465
l46 -49 -30 -279 c-17 -153 -30 -287 -30 -297 0 -10 11 -29 25 -42 l24 -25
265 0 c263 0 265 0 292 23 l27 24 -27 311 -26 311 30 47 c47 75 65 139 64 234
0 109 -27 179 -95 255 -71 77 -152 116 -255 121 -44 2 -96 -1 -117 -6z m183
-151 c60 -27 98 -64 126 -124 42 -89 24 -199 -46 -280 -22 -26 -40 -55 -40
-65 0 -10 14 -138 30 -285 17 -147 30 -268 30 -271 0 -2 -77 -4 -171 -4 l-170
0 5 53 c21 183 46 485 42 502 -3 11 -28 42 -56 69 -62 60 -80 93 -87 161 -19
180 172 319 337 244z"/>
<path d="M3811 1106 l-316 -315 -82 80 c-64 61 -89 79 -111 79 -38 0 -62 -28
-62 -71 0 -30 12 -46 98 -130 107 -106 137 -129 166 -129 13 0 145 125 373
352 376 376 378 378 333 426 -13 14 -33 22 -52 22 -28 0 -67 -35 -347 -314z"/>
</g>
</svg>
