<?xml version="1.0" standalone="no"?>
<!DOCTYPE svg PUBLIC "-//W3C//DTD SVG 20010904//EN"
 "http://www.w3.org/TR/2001/REC-SVG-20010904/DTD/svg10.dtd">
<svg version="1.0" xmlns="http://www.w3.org/2000/svg"
 width="512.000000pt" height="512.000000pt" viewBox="0 0 512.000000 512.000000"
 preserveAspectRatio="xMidYMid meet">

<g transform="translate(0.000000,512.000000) scale(0.100000,-0.100000)"
fill="#000000" stroke="none">
<path d="M931 5109 c-172 -34 -333 -185 -388 -364 -17 -57 -18 -151 -18 -2185
0 -2034 1 -2128 18 -2185 57 -184 216 -331 396 -365 34 -6 437 -10 1108 -10
927 0 1062 2 1116 16 172 44 299 159 365 330 l27 69 5 758 5 758 90 -107 c144
-170 175 -189 230 -142 24 22 53 132 131 510 l6 28 96 0 c195 1 294 32 375
119 56 60 87 126 98 209 11 89 11 980 0 1059 -19 129 -98 239 -209 291 l-57
27 -382 3 -381 3 -4 387 -4 387 -26 69 c-65 170 -192 286 -365 330 -54 14
-188 16 -1124 15 -585 -1 -1084 -5 -1108 -10z m2254 -187 c56 -26 115 -78 151
-135 42 -65 54 -136 54 -324 l0 -173 -1351 0 -1351 0 4 198 c3 191 4 199 31
257 43 93 120 162 212 191 31 10 272 12 1120 11 l1080 -2 50 -23z m203 -894
l-3 -93 -410 -5 -410 -5 -53 -28 c-73 -38 -128 -97 -165 -175 l-32 -67 -3
-447 -3 -448 -163 0 c-157 0 -164 -1 -217 -27 -67 -35 -105 -87 -120 -167 -6
-36 -9 -185 -7 -400 3 -373 5 -385 66 -449 47 -50 79 -61 191 -67 l104 -5 33
-149 c18 -82 40 -156 49 -166 21 -24 58 -32 87 -21 14 5 89 84 169 175 l144
166 228 0 c246 0 264 3 326 56 64 53 71 84 71 312 l0 202 23 0 c13 -1 36 -17
60 -45 l37 -44 -2 -483 -3 -483 -1345 0 -1345 0 -3 1478 -2 1477 1350 0 1351
0 -3 -92z m929 -280 c48 -27 91 -86 103 -142 8 -35 10 -217 8 -561 l-3 -510
-23 -40 c-26 -45 -72 -81 -123 -95 -19 -6 -105 -10 -191 -10 -212 0 -196 16
-254 -250 -25 -112 -46 -206 -48 -207 -2 -2 -81 87 -176 198 -96 111 -187 214
-203 230 l-29 29 -371 0 c-341 0 -375 2 -412 19 -47 22 -89 64 -104 104 -7 19
-11 210 -11 565 0 499 2 540 19 577 21 47 70 92 109 101 15 3 32 7 37 9 6 2
377 3 825 2 751 -2 817 -3 847 -19z m-2004 -1210 c15 -122 110 -244 225 -289
52 -21 78 -23 315 -27 l258 -4 -3 -183 c-2 -136 -6 -186 -17 -198 -12 -15 -42
-17 -240 -17 -124 0 -242 -5 -262 -10 -29 -8 -57 -35 -135 -125 -54 -63 -99
-113 -101 -112 -1 2 -11 45 -23 97 -31 140 -37 144 -200 149 -119 3 -132 5
-145 24 -23 33 -22 692 1 725 15 21 21 22 168 22 l153 0 6 -52z m1077 -1796
c0 -278 -8 -337 -53 -409 -36 -57 -107 -118 -163 -139 -47 -18 -91 -19 -1139
-19 l-1090 0 -50 25 c-74 36 -138 101 -171 173 l-29 62 -3 283 -4 282 1351 0
1351 0 0 -258z"/>
<path d="M1632 4710 c-48 -45 -37 -111 24 -136 30 -13 95 -14 406 -12 l370 3
24 28 c31 37 31 81 -1 112 l-24 25 -389 0 c-376 0 -389 -1 -410 -20z"/>
<path d="M2715 3368 c-31 -18 -44 -40 -44 -73 0 -34 14 -56 46 -73 31 -17 855
-17 886 0 57 30 64 92 16 132 l-31 26 -426 0 c-302 -1 -433 -4 -447 -12z"/>
<path d="M2721 2939 c-33 -13 -50 -38 -50 -74 0 -34 14 -56 46 -73 16 -9 209
-12 722 -12 l700 0 25 23 c28 24 34 48 23 89 -16 59 -1 58 -754 57 -416 0
-698 -4 -712 -10z"/>
<path d="M1989 879 c-66 -10 -120 -41 -172 -99 -78 -86 -97 -195 -56 -307 79
-210 357 -258 507 -88 50 57 72 119 72 204 0 183 -165 319 -351 290z m105
-173 c72 -30 101 -108 66 -180 -27 -57 -71 -81 -136 -73 -39 4 -55 12 -81 41
-28 30 -33 43 -33 83 0 59 25 103 71 126 42 20 70 21 113 3z"/>
</g>
</svg>
